<svg xmlns="http://www.w3.org/2000/svg" viewBox="0 0 512 512" role="img" aria-label="detailed anime Cao Cao warlord portrait">
  <defs>
    <radialGradient id="bg" cx="48%" cy="24%" r="76%">
      <stop offset="0" stop-color="#ffe1a9"/>
      <stop offset="0.38" stop-color="#9d2f37"/>
      <stop offset="0.72" stop-color="#2b1320"/>
      <stop offset="1" stop-color="#0b0910"/>
    </radialGradient>
    <linearGradient id="skin" x1="0" x2="1" y1="0" y2="1">
      <stop offset="0" stop-color="#ffe0b8"/>
      <stop offset="0.52" stop-color="#e6a579"/>
      <stop offset="1" stop-color="#9b5a51"/>
    </linearGradient>
    <linearGradient id="armor" x1="0" x2="1" y1="0" y2="1">
      <stop offset="0" stop-color="#ffd57c"/>
      <stop offset="0.34" stop-color="#9d3436"/>
      <stop offset="0.72" stop-color="#2a1420"/>
      <stop offset="1" stop-color="#09070d"/>
    </linearGradient>
    <filter id="soft" x="-20%" y="-20%" width="140%" height="140%">
      <feDropShadow dx="0" dy="14" stdDeviation="14" flood-color="#050308" flood-opacity=".55"/>
    </filter>
  </defs>
  <rect width="512" height="512" rx="46" fill="url(#bg)"/>
  <path d="M50 430c75-92 142-139 205-139 70 0 138 47 207 139v82H50z" fill="#0e0b12" opacity=".88"/>
  <g filter="url(#soft)">
    <path d="M108 432c18-88 70-147 148-147 79 0 133 58 151 147v80H108z" fill="url(#armor)"/>
    <path d="M151 331l-43 92 84-21 64 76 64-76 84 21-43-92-55-27H206z" fill="#21101a"/>
    <path d="M149 414l50-30 31 44-25 84h-96zM363 414l-50-30-31 44 25 84h96z" fill="#671f29"/>
    <path d="M206 365h100l-21 112h-58z" fill="#c88b42"/>
    <path d="M222 381h68M215 410h82M209 439h94" stroke="#35151a" stroke-width="7" stroke-linecap="round" opacity=".72"/>
    <path d="M151 170c6-86 50-136 108-136 63 0 106 53 113 136 8 104-40 176-110 176-72 0-119-72-111-176z" fill="url(#skin)"/>
    <path d="M153 168c17-73 65-123 113-123 72 0 122 72 119 154-42-14-74-41-99-83-31 48-75 82-133 101z" fill="#181420"/>
    <path d="M126 184c12-68 47-117 102-145 45-22 101-12 136 24 35 35 49 79 42 132-48-73-105-109-170-106-48 2-84 34-110 95z" fill="#2b2039"/>
    <path d="M174 185c31-18 66-14 98 7M286 192c35-23 69-24 103-2" fill="none" stroke="#4e202a" stroke-width="11" stroke-linecap="round"/>
    <path d="M198 224c15-15 39-14 58 2-17 13-42 12-58-2zM305 224c17-16 42-16 60 0-17 14-43 14-60 0z" fill="#fff1cf"/>
    <circle cx="229" cy="221" r="7" fill="#141018"/>
    <circle cx="336" cy="221" r="7" fill="#141018"/>
    <circle cx="232" cy="218" r="2.5" fill="#ffe8a8"/>
    <circle cx="339" cy="218" r="2.5" fill="#ffe8a8"/>
    <path d="M197 224c17 13 42 13 60 0M304 224c18 13 44 13 62 0" fill="none" stroke="#0b0710" stroke-width="4" stroke-linecap="round"/>
    <path d="M257 230c-10 38-11 61-3 79" fill="none" stroke="#9e554d" stroke-width="9" stroke-linecap="round"/>
    <path d="M219 318c25 22 51 23 79 0" fill="none" stroke="#7b2b36" stroke-width="9" stroke-linecap="round"/>
    <path d="M159 128c33-59 69-89 108-90 45 0 82 32 111 96" fill="none" stroke="#d7a448" stroke-width="13" stroke-linecap="round"/>
    <path d="M102 88c74 18 124-1 151-58 45 53 97 71 157 53" fill="none" stroke="#ffe6a2" stroke-width="8" opacity=".62"/>
    <path d="M118 128l36 10-20 31zM392 132l-34 10 19 31z" fill="#f5bd58"/>
    <circle cx="151" cy="138" r="15" fill="#f8cf73"/>
    <circle cx="365" cy="140" r="15" fill="#f8cf73"/>
  </g>
  <path d="M79 456c55 18 116 27 183 27 62 0 119-9 171-27" fill="none" stroke="#ffe6a2" stroke-width="3" opacity=".22"/>
</svg>
