<svg xmlns="http://www.w3.org/2000/svg" viewBox="0 0 512 512" role="img" aria-label="anime villain warlord portrait">
  <defs>
    <radialGradient id="bg" cx="50%" cy="25%" r="74%">
      <stop offset="0" stop-color="#ead3ff"/>
      <stop offset="0.5" stop-color="#643c8c"/>
      <stop offset="1" stop-color="#151020"/>
    </radialGradient>
    <linearGradient id="armor" x1="0" x2="1" y1="0" y2="1">
      <stop offset="0" stop-color="#d6b66f"/>
      <stop offset="0.42" stop-color="#6b438e"/>
      <stop offset="1" stop-color="#1b1426"/>
    </linearGradient>
  </defs>
  <rect width="512" height="512" rx="42" fill="url(#bg)"/>
  <path d="M40 438c67-105 139-158 216-158 83 0 156 53 216 158v74H40z" fill="#130d1b" opacity="0.92"/>
  <path d="M95 425c38-96 92-145 162-145 73 0 127 49 161 145v87H95z" fill="url(#armor)"/>
  <path d="M155 338l-51 95 90-21 62 62 62-62 91 21-53-95z" fill="#26162e"/>
  <path d="M145 171c8-82 54-135 113-135 65 0 111 55 119 135 9 111-39 186-119 186-78 0-123-75-113-186z" fill="#e5b993"/>
  <path d="M143 164c28-92 87-143 154-121 47 15 78 59 87 130-55-11-98-38-130-82-29 43-66 68-111 73z" fill="#201a2d"/>
  <path d="M139 114c43-83 113-104 176-63 39 25 62 70 69 124-59-60-139-80-245-61z" fill="#2f2740"/>
  <path d="M180 215c29-19 59-18 88 3" stroke="#3d2744" stroke-width="10" stroke-linecap="round"/>
  <path d="M287 218c31-21 61-22 91-3" stroke="#3d2744" stroke-width="10" stroke-linecap="round"/>
  <path d="M202 243c18 12 35 12 51 0M309 243c16 12 33 12 51 0" stroke="#09070c" stroke-width="7" stroke-linecap="round"/>
  <path d="M259 238c-8 39-9 61-2 78" stroke="#9d634f" stroke-width="8" stroke-linecap="round"/>
  <path d="M221 327c24 20 51 20 78 0" stroke="#6a313c" stroke-width="9" stroke-linecap="round"/>
  <path d="M124 118c46-51 91-77 135-77 49 0 93 29 133 86" fill="none" stroke="#d9b56a" stroke-width="13" stroke-linecap="round"/>
  <path d="M255 40l27 43-54 0z" fill="#f3cc73"/>
  <circle cx="124" cy="118" r="17" fill="#f1c66c"/>
  <circle cx="392" cy="127" r="17" fill="#f1c66c"/>
  <path d="M91 73c35 56 68 75 101 57M421 78c-33 57-65 76-98 58" stroke="#b697ff" stroke-width="7" stroke-linecap="round" opacity="0.36"/>
</svg>
