<svg xmlns="http://www.w3.org/2000/svg" viewBox="0 0 512 512" role="img" aria-label="detailed anime Liu Bei noble ruler portrait">
  <defs>
    <radialGradient id="bg" cx="48%" cy="20%" r="78%">
      <stop offset="0" stop-color="#fff5c7"/>
      <stop offset="0.42" stop-color="#2f7d57"/>
      <stop offset="0.74" stop-color="#16372f"/>
      <stop offset="1" stop-color="#090d10"/>
    </radialGradient>
    <linearGradient id="skin" x1="0" x2="1" y1="0" y2="1">
      <stop offset="0" stop-color="#ffe6c0"/>
      <stop offset="0.56" stop-color="#e8ad82"/>
      <stop offset="1" stop-color="#a86a54"/>
    </linearGradient>
    <linearGradient id="robe" x1="0" x2="1" y1="0" y2="1">
      <stop offset="0" stop-color="#fff0b3"/>
      <stop offset="0.38" stop-color="#3f9a68"/>
      <stop offset="0.74" stop-color="#1b4a42"/>
      <stop offset="1" stop-color="#0a1315"/>
    </linearGradient>
    <filter id="soft" x="-20%" y="-20%" width="140%" height="140%">
      <feDropShadow dx="0" dy="14" stdDeviation="14" flood-color="#02100c" flood-opacity=".52"/>
    </filter>
  </defs>
  <rect width="512" height="512" rx="46" fill="url(#bg)"/>
  <path d="M40 427c69-87 141-132 216-132 76 0 148 45 216 132v85H40z" fill="#07100f" opacity=".84"/>
  <g filter="url(#soft)">
    <path d="M106 432c21-85 73-145 151-145 78 0 130 60 149 145v80H106z" fill="url(#robe)"/>
    <path d="M150 334l-41 85 82-18 66 76 65-76 83 18-43-85-55-29H205z" fill="#10231e"/>
    <path d="M139 426l61-39 34 44-18 81H103zM374 426l-61-39-34 44 18 81h113z" fill="#d8bf73" opacity=".82"/>
    <path d="M221 371h72l22 141H198z" fill="#2b7956"/>
    <path d="M224 389c28 20 55 20 82 0M214 423c33 18 65 18 96 0" fill="none" stroke="#e9d591" stroke-width="7" stroke-linecap="round" opacity=".72"/>
    <path d="M148 172c6-84 51-134 109-134 61 0 105 52 111 134 8 102-40 174-111 174-72 0-117-72-109-174z" fill="url(#skin)"/>
    <path d="M155 165c29-76 79-116 128-112 53 4 94 47 98 119-42-13-74-40-96-78-27 43-72 73-136 92z" fill="#17231d"/>
    <path d="M151 112c35-50 72-77 111-78 43-1 79 27 110 84" fill="none" stroke="#f4d979" stroke-width="13" stroke-linecap="round"/>
    <path d="M177 194c28-15 59-13 90 6M286 200c30-18 62-19 94-2" fill="none" stroke="#26573f" stroke-width="10" stroke-linecap="round"/>
    <path d="M201 225c16-13 38-12 56 2-16 12-40 12-56-2zM304 225c16-14 40-14 58 0-17 13-41 13-58 0z" fill="#fff5d8"/>
    <circle cx="229" cy="223" r="6.5" fill="#0b1710"/>
    <circle cx="334" cy="223" r="6.5" fill="#0b1710"/>
    <circle cx="232" cy="220" r="2.5" fill="#dff8c9"/>
    <circle cx="337" cy="220" r="2.5" fill="#dff8c9"/>
    <path d="M201 225c17 12 40 12 57 0M304 225c17 12 41 12 59 0" fill="none" stroke="#08100c" stroke-width="4" stroke-linecap="round"/>
    <path d="M256 231c-10 37-10 59-1 77" fill="none" stroke="#a96452" stroke-width="8" stroke-linecap="round"/>
    <path d="M218 318c25 23 52 23 79 0" fill="none" stroke="#8b4c43" stroke-width="9" stroke-linecap="round"/>
    <path d="M166 86c47-55 104-55 171 1" fill="none" stroke="#fff0a8" stroke-width="7" opacity=".52"/>
    <circle cx="157" cy="115" r="14" fill="#f3d273"/>
    <circle cx="368" cy="118" r="14" fill="#f3d273"/>
    <path d="M119 149c27 8 49 6 67-7M393 151c-27 8-49 6-67-7" fill="none" stroke="#fff5c7" stroke-width="5" opacity=".35"/>
  </g>
  <path d="M73 454c56 22 118 33 186 33 65 0 124-11 178-33" fill="none" stroke="#dff6d7" stroke-width="3" opacity=".2"/>
</svg>
