<svg xmlns="http://www.w3.org/2000/svg" viewBox="0 0 512 512" role="img" aria-label="detailed anime Sun Quan young ruler portrait">
  <defs>
    <radialGradient id="bg" cx="51%" cy="22%" r="78%">
      <stop offset="0" stop-color="#e5fbff"/>
      <stop offset="0.42" stop-color="#2f79a4"/>
      <stop offset="0.74" stop-color="#17314a"/>
      <stop offset="1" stop-color="#070a10"/>
    </radialGradient>
    <linearGradient id="skin" x1="0" x2="1" y1="0" y2="1">
      <stop offset="0" stop-color="#ffe1ba"/>
      <stop offset="0.55" stop-color="#e8aa7e"/>
      <stop offset="1" stop-color="#9d6251"/>
    </linearGradient>
    <linearGradient id="armor" x1="0" x2="1" y1="0" y2="1">
      <stop offset="0" stop-color="#f6d884"/>
      <stop offset="0.35" stop-color="#2f8aa5"/>
      <stop offset="0.74" stop-color="#173453"/>
      <stop offset="1" stop-color="#070a10"/>
    </linearGradient>
    <filter id="soft" x="-20%" y="-20%" width="140%" height="140%">
      <feDropShadow dx="0" dy="14" stdDeviation="14" flood-color="#030714" flood-opacity=".55"/>
    </filter>
  </defs>
  <rect width="512" height="512" rx="46" fill="url(#bg)"/>
  <path d="M42 428c75-90 146-136 214-136 73 0 144 46 214 136v84H42z" fill="#050b12" opacity=".86"/>
  <g filter="url(#soft)">
    <path d="M105 433c20-88 72-145 151-145 78 0 130 57 151 145v79H105z" fill="url(#armor)"/>
    <path d="M148 336l-42 85 84-17 66 73 66-73 84 17-42-85-58-30H206z" fill="#0c1620"/>
    <path d="M119 426l72-36 38 43-20 79H98zM393 426l-72-36-38 43 20 79h111z" fill="#a62f38" opacity=".82"/>
    <path d="M217 372h78l25 140H192z" fill="#246c8c"/>
    <path d="M219 391c27 20 54 20 82 0M210 424c34 18 68 18 101 0" fill="none" stroke="#f2d37e" stroke-width="7" stroke-linecap="round" opacity=".76"/>
    <path d="M149 171c6-82 50-131 108-131 60 0 105 50 111 131 8 101-40 173-111 173-71 0-116-72-108-173z" fill="url(#skin)"/>
    <path d="M153 168c26-75 76-115 125-112 55 3 98 46 101 118-40-13-73-39-99-78-27 43-70 72-127 90z" fill="#151b27"/>
    <path d="M132 179c14-70 53-119 114-144 41-17 88-9 122 22 34 31 50 70 48 119-50-69-108-101-174-96-48 4-84 37-110 99z" fill="#202742"/>
    <path d="M161 119c36-51 70-77 101-78 40 0 74 28 104 84" fill="none" stroke="#f0d36f" stroke-width="12" stroke-linecap="round"/>
    <path d="M177 193c29-16 60-14 91 5M288 198c31-18 63-18 96 0" fill="none" stroke="#1d4162" stroke-width="10" stroke-linecap="round"/>
    <path d="M201 224c16-14 39-13 57 2-16 13-41 12-57-2zM305 224c17-14 41-14 59 0-17 14-42 14-59 0z" fill="#eefbff"/>
    <circle cx="230" cy="222" r="6.5" fill="#0a1726"/>
    <circle cx="335" cy="222" r="6.5" fill="#0a1726"/>
    <circle cx="233" cy="219" r="2.5" fill="#b9efff"/>
    <circle cx="338" cy="219" r="2.5" fill="#b9efff"/>
    <path d="M201 224c17 13 41 13 58 0M305 224c17 13 42 13 60 0" fill="none" stroke="#07101b" stroke-width="4" stroke-linecap="round"/>
    <path d="M256 230c-9 36-9 58 0 76" fill="none" stroke="#9b5d52" stroke-width="8" stroke-linecap="round"/>
    <path d="M219 317c24 21 50 21 76 0" fill="none" stroke="#70404a" stroke-width="9" stroke-linecap="round"/>
    <path d="M87 158c43-12 75-31 95-58M425 162c-39-12-69-32-91-62" fill="none" stroke="#dff7ff" stroke-width="7" stroke-linecap="round" opacity=".4"/>
    <circle cx="159" cy="121" r="14" fill="#f2d374"/>
    <circle cx="365" cy="124" r="14" fill="#f2d374"/>
  </g>
  <path d="M74 454c54 23 114 34 181 34 68 0 129-11 183-34" fill="none" stroke="#b9efff" stroke-width="3" opacity=".2"/>
</svg>
